HIERARCHY
ROOT pelvis
{
	OFFSET 0.000000 0.000000 0.000000
	CHANNELS 6 Xposition Yposition Zposition Zrotation Xrotation Yrotation
	JOINT lfemur
	{
		OFFSET 11.446000 0.000000 0.000000
		CHANNELS 3 Zrotation Xrotation Yrotation
		JOINT ltibia
		{
			OFFSET 0.000000 -42.030400 0.000000
			CHANNELS 3 Zrotation Xrotation Yrotation
			JOINT lfoot
			{
				OFFSET 0.000000 -39.930200 0.000000
				CHANNELS 3 Zrotation Xrotation Yrotation
				JOINT ltoes
				{
					OFFSET 0.000000 0.000000 11.775800
					CHANNELS 3 Zrotation Xrotation Yrotation
					End Site
					{
					    OFFSET 0.000000 0.000000 5.000000
					}
				}
			}
		}
	}
	JOINT rfemur
	{
		OFFSET -11.446000 0.000000 0.000000
		CHANNELS 3 Zrotation Xrotation Yrotation
		JOINT rtibia
		{
			OFFSET 0.000000 -42.030400 0.000000
			CHANNELS 3 Zrotation Xrotation Yrotation
			JOINT rfoot
			{
				OFFSET 0.000000 -39.930200 0.000000
				CHANNELS 3 Zrotation Xrotation Yrotation
				JOINT rtoes
				{
					OFFSET 0.000000 0.000000 11.775800
					CHANNELS 3 Zrotation Xrotation Yrotation
					End Site
					{
					    OFFSET 0.000000 0.000000 5.000000
					}
				}
			}
		}
	}
	JOINT thorax
	{
		OFFSET 0.000000 11.255600 -5.000000
		CHANNELS 3 Zrotation Xrotation Yrotation
		JOINT head
		{
			OFFSET 0.000000 43.799300 0.000000
			CHANNELS 3 Zrotation Xrotation Yrotation
			End Site
			{
			    OFFSET 0.000000 5.000000 0.000000
			}
		}
		JOINT lclavicle
		{
			OFFSET 0.000000 39.863000 0.000000
			CHANNELS 3 Zrotation Xrotation Yrotation
			JOINT lhumerus
			{
				OFFSET 17.380600 4.958300 0.000000
				CHANNELS 3 Zrotation Xrotation Yrotation
				JOINT lradius
				{
					OFFSET 0.000000 -27.561300 0.000000
					CHANNELS 3 Zrotation Xrotation Yrotation
					JOINT lhand
					{
						OFFSET 0.000000 -26.933000 0.000000
						CHANNELS 3 Zrotation Xrotation Yrotation
						End Site
						{
						    OFFSET 0.000000 -5.000000 0.000000
						}
					}
				}
			}
		}
		JOINT rclavicle
		{
			OFFSET 0.000000 39.863000 0.000000
			CHANNELS 3 Zrotation Xrotation Yrotation
			JOINT rhumerus
			{
				OFFSET -17.380600 4.958300 0.000000
				CHANNELS 3 Zrotation Xrotation Yrotation
				JOINT rradius
				{
					OFFSET 0.000000 -27.561300 0.000000
					CHANNELS 3 Zrotation Xrotation Yrotation
					JOINT rhand
					{
						OFFSET 0.000000 -26.933000 0.000000
						CHANNELS 3 Zrotation Xrotation Yrotation
						End Site
						{
						    OFFSET 0.000000 -5.000000 0.000000
						}
					}
				}
			}
		}
	}
}
MOTION
Frames:	22
Frame Time:	0.0333333
-226.442 89.212 90.1402 0.893695 0.222415 89.7389 -2.97186 -1.10199 0.496614 1.63868 11.9736 12.0526 6.39739 2.4076 0.0133703 3.83656e-015 -5 -1.59635e-015 2.29305 2.28364 -0.734351 -1.08287 10.1443 -13.1443 -2.98944 3.41534 -0.136974 -1.05358e-015 -5 1.59635e-015 -4.20977 -4.01232 -1.56351 -6.87267 27.7619 -29.6709 -1.59028e-015 3.27995e-015 -0 34.093 -4.44361 65.6766 3.44926 -0.00307381 -97.6768 6.10645 -9.81782 -9.128 -1.59028e-015 3.27995e-015 -0 -20.2341 -2.27509 -22.5878 10.5325 -2.87759 -5.57553 -27.5527 -25.2634 2.4382 
-226.452 89.212 90.1413 0.904413 0.22684 89.7564 -2.98693 -1.09162 0.475596 1.65711 11.9553 12.0826 6.40585 2.4288 0.0133637 1.45115e-015 -5 -1.59635e-015 2.28676 2.28432 -0.749204 -1.07221 10.1528 -13.1431 -3.02384 3.40272 -0.137018 -1.41141e-015 -5 3.1927e-015 -4.14624 -4.06445 -1.53953 -6.85896 27.8262 -29.6956 1.59028e-015 -4.84538e-016 -1.98785e-016 33.8331 -4.38733 65.6962 3.53321 -0.0593187 -97.8775 5.9453 -9.76964 -9.1503 1.59028e-015 -4.84538e-016 -1.98785e-016 -20.3137 -2.25735 -22.6035 10.602 -2.86315 -5.08901 -27.4205 -24.586 2.64345 
-226.461 89.2121 90.1455 0.93815 0.25187 89.8154 -3.02706 -1.04825 0.431493 1.68588 11.9083 12.1026 6.44449 2.46961 0.0133302 6.56007e-016 -5 -1.59635e-015 2.25653 2.29504 -0.790293 -1.05627 10.2026 -13.13 -3.01859 3.37309 -0.137055 -1.72941e-015 -5 -1.59635e-015 -4.07095 -4.16462 -1.50336 -6.73488 27.9531 -29.7848 -7.95139e-016 9.31803e-016 -0 33.3609 -4.23053 65.5537 3.55835 -0.0890783 -98.1178 5.71841 -9.58344 -9.18881 -7.95139e-016 9.31803e-016 -0 -20.4424 -2.19524 -22.6217 10.7051 -2.82777 -4.41546 -26.7894 -23.301 3.12787 
-226.46 89.2124 90.151 0.995134 0.292777 89.8979 -3.07908 -0.975949 0.386598 1.71105 11.8593 12.068 6.48131 2.50688 0.0132703 -2.78262e-016 -5 -3.1927e-015 2.21238 2.36013 -0.844791 -1.04149 10.2057 -13.1453 -2.99219 3.35132 -0.137089 1.39131e-016 -5 1.59635e-015 -4.05791 -4.20393 -1.48568 -6.57928 28.0297 -29.8839 -7.95139e-016 -5.46658e-016 -0 32.8072 -4.08245 65.3373 3.48818 -0.152946 -98.1982 5.76189 -9.42283 -9.18964 -7.95139e-016 -5.46658e-016 -0 -20.5361 -2.15161 -22.6635 10.7755 -2.80145 -3.98658 -25.7351 -21.8626 3.73819 
-226.465 89.2126 90.1568 1.03649 0.339399 89.9628 -3.13476 -0.927314 0.337757 1.7398 11.8211 12.0307 6.49118 2.53917 0.0131849 -0 -5 -0 2.17245 2.41683 -0.891267 -1.02729 10.1714 -13.1999 -3.02016 3.32893 -0.13712 -3.97569e-016 -5 -0 -4.10958 -4.13321 -1.47258 -6.53555 27.9909 -29.9349 -1.59028e-015 -1.18028e-015 1.98785e-016 32.2981 -4.14579 65.3581 3.46546 -0.00329478 -98.3438 6.13975 -9.43413 -9.1438 -1.59028e-015 -1.18028e-015 1.98785e-016 -20.5487 -2.1952 -22.7183 10.8322 -2.85285 -3.56124 -24.5676 -20.1773 4.39867 
-226.485 89.2124 90.1675 1.03338 0.377904 90.0197 -3.18193 -0.929342 0.276085 1.77743 11.7771 12.0195 6.46473 2.58102 0.0130746 7.95139e-016 -5 -0 2.14651 2.38678 -0.92212 -1.01139 10.2043 -13.2616 -3.0709 3.28692 -0.137144 -8.34878e-016 -5 -1.59635e-015 -4.19527 -4.01576 -1.44135 -6.58497 27.901 -29.9817 -6.03464e-034 8.69683e-017 3.97569e-016 31.6122 -4.32795 65.5583 3.51252 -0.0766563 -98.7285 6.09918 -9.58819 -9.13934 -6.03464e-034 8.69683e-017 3.97569e-016 -20.4671 -2.24823 -22.7587 10.9384 -3.07479 -2.73072 -23.2865 -18.0337 5.13894 
-226.499 89.2122 90.1842 1.01969 0.401543 90.1278 -3.20427 -0.931562 0.218942 1.8119 11.7122 11.9718 6.41357 2.63631 0.0129402 -1.31201e-015 -5 3.1927e-015 2.13139 2.33565 -0.954603 -0.986877 10.296 -13.3166 -3.06378 3.24144 -0.137164 1.39131e-016 -5 1.59635e-015 -4.25862 -3.94202 -1.42174 -6.64232 27.8784 -30.0696 7.95139e-016 -7.33018e-016 3.97569e-016 30.8614 -4.53184 65.6478 3.49035 -0.109088 -99.2484 5.83975 -9.70901 -9.16604 7.95139e-016 -7.33018e-016 3.97569e-016 -20.3595 -2.19631 -22.844 11.1052 -3.44608 -1.51835 -21.669 -15.6255 5.94206 
-226.494 89.2124 90.195 1.0415 0.418994 90.2686 -3.22115 -0.889148 0.179001 1.83275 11.6497 11.8822 6.38092 2.68428 0.0127821 -1.39131e-016 -5 -1.59635e-015 2.10011 2.3601 -1.01483 -0.948703 10.3461 -13.3522 -3.02792 3.21006 -0.137183 -4.96962e-016 -5 -0 -4.24564 -3.92879 -1.45266 -6.75615 27.9419 -30.1182 -2.06902e-033 5.96354e-016 1.98785e-016 30.0011 -4.64713 65.5596 3.38313 -0.108256 -99.5286 6.20604 -9.77414 -9.11435 -2.06902e-033 5.96354e-016 1.98785e-016 -20.329 -2.07723 -23.0893 11.3007 -3.86103 -0.0897553 -19.8209 -13.2616 6.70276 
-226.49 89.2127 90.1843 1.08837 0.466385 90.3327 -3.28118 -0.818536 0.133362 1.84691 11.5935 11.8662 6.40454 2.72132 0.012601 -0 -5 -0 2.0226 2.3942 -1.10449 -0.909192 10.3967 -13.3211 -3.04531 3.15164 -0.137195 7.95139e-016 -5 -0 -4.18959 -3.92348 -1.5 -6.9884 27.9928 -30.0415 3.10353e-033 4.47266e-016 -3.97569e-016 28.9916 -4.73274 65.6238 3.38464 -0.0875631 -99.489 7.29695 -9.84518 -8.96661 3.10353e-033 4.47266e-016 -3.97569e-016 -20.3654 -2.0004 -23.4715 11.5531 -4.32329 1.77033 -18.1021 -10.8487 7.37085 
-226.503 89.2129 90.1656 1.12593 0.534126 90.2976 -3.37495 -0.752863 0.0737842 1.86009 11.5287 11.9507 6.4582 2.76107 0.0123977 -0 -5 -0 1.92498 2.35193 -1.18704 -0.891917 10.5355 -13.224 -3.08695 3.05664 -0.1372 -1.53062e-015 -5 -1.59635e-015 -4.20172 -3.88574 -1.50524 -7.19583 27.9696 -29.9169 7.95139e-016 4.37326e-015 -1.98785e-016 27.906 -4.89931 65.9908 3.58567 -0.0688293 -99.4234 7.89309 -9.92793 -8.88288 7.95139e-016 4.37326e-015 -1.98785e-016 -20.3139 -1.90508 -23.7214 11.9212 -5.02309 4.25898 -16.5131 -8.16342 7.98561 
-226.508 89.2131 90.167 1.15945 0.577228 90.2851 -3.42101 -0.694798 0.0440095 1.86101 11.4704 11.9843 6.48315 2.80092 0.0121728 5.16876e-016 -5 -3.1927e-015 1.88098 2.30213 -1.22076 -0.902134 10.6976 -13.1671 -3.05933 2.98803 -0.137207 1.68967e-015 -5 -0 -4.31203 -3.83821 -1.49742 -7.19093 27.9383 -29.8689 9.35369e-033 -2.69602e-015 1.98785e-016 26.8434 -5.12459 66.3111 3.79648 -0.0935855 -99.5428 7.25546 -9.93026 -8.96707 9.35369e-033 -2.69602e-015 1.98785e-016 -20.0582 -1.64876 -23.6308 12.3138 -6.04754 7.16472 -14.6577 -5.36321 8.5632 
-226.496 89.2135 90.1913 1.19449 0.580318 90.355 -3.38982 -0.655069 0.0686567 1.84244 11.4588 11.8953 6.46841 2.81781 0.0119268 3.04142e-015 -5 -1.59635e-015 1.90904 2.33261 -1.2081 -0.920592 10.7435 -13.2211 -2.98481 2.98824 -0.13722 -1.13305e-015 -5 -1.59635e-015 -4.40622 -3.83706 -1.55788 -7.0386 27.9787 -29.8606 -7.95139e-016 4.72114e-016 -0 25.8412 -5.32915 66.2752 3.81732 -0.0412338 -99.8089 6.34388 -9.74847 -9.09955 -7.95139e-016 4.72114e-016 -0 -19.6851 -1.28623 -23.3003 12.5786 -7.16642 10.4038 -12.3853 -2.78478 9.0552 
-226.493 89.2138 90.2143 1.20789 0.578484 90.4097 -3.35497 -0.660255 0.101223 1.82011 11.4912 11.8203 6.44591 2.80611 0.0116602 1.39131e-016 -5 1.59635e-015 1.94314 2.384 -1.18729 -0.933785 10.6804 -13.3084 -2.96956 3.01534 -0.137234 8.34878e-016 -5 1.59635e-015 -4.39005 -3.90346 -1.68443 -6.94133 28.0745 -29.7901 8.87954e-033 2.55935e-015 -1.98785e-016 24.7195 -5.46808 66.0395 3.72101 -0.114815 -100.142 6.13109 -9.41359 -9.14398 8.87954e-033 2.55935e-015 -1.98785e-016 -19.4205 -1.02853 -22.648 12.8264 -8.05348 14.024 -10.0068 -0.592687 9.4148 
-226.506 89.2139 90.225 1.19357 0.593938 90.3836 -3.35794 -0.692073 0.107724 1.80867 11.5167 11.8388 6.42732 2.78982 0.0113741 2.52455e-015 -5 1.59635e-015 1.94946 2.38431 -1.17204 -0.947244 10.6192 -13.341 -3.02337 3.021 -0.137244 9.54184e-016 -5 -1.59635e-015 -4.32348 -4.00637 -1.78959 -6.89444 28.1935 -29.7089 7.95139e-016 -1.59028e-015 3.97569e-016 23.6187 -5.68879 65.9695 3.72487 -0.0592759 -100.673 6.38538 -9.05496 -9.13189 7.95139e-016 -1.59028e-015 3.97569e-016 -19.2166 -0.863313 -21.6687 13.0859 -8.8053 18.0129 -7.66087 1.17001 9.653 
-226.509 89.2142 90.2436 1.18079 0.587546 90.3334 -3.33447 -0.702311 0.134051 1.7953 11.5113 11.8518 6.40675 2.78721 0.0110692 -1.72941e-015 -5 -1.59635e-015 1.97944 2.38118 -1.13182 -0.970013 10.5807 -13.3418 -3.06503 3.03329 -0.137254 -1.49089e-015 -5 -0 -4.31523 -4.1055 -1.82003 -6.71957 28.3649 -29.7322 7.95139e-016 -2.82026e-015 3.97569e-016 22.5371 -5.96337 66.0569 3.87546 -0.0875548 -101.387 6.20804 -8.93673 -9.16023 7.95139e-016 -2.82026e-015 3.97569e-016 -18.8746 -0.712948 -21.0901 13.2128 -9.35652 22.5275 -5.22082 2.27534 9.79151 
-226.504 89.2191 90.2772 1.1631 0.546532 90.2534 -3.25353 -0.695262 0.213197 1.76222 11.4797 11.855 6.40073 2.79945 0.0107463 -3.18055e-015 -5 -0 2.05349 2.37746 -1.0477 -1.00556 10.5492 -13.3176 -3.06646 3.08739 -0.137267 3.02151e-015 -5 1.59635e-015 -4.37232 -4.17911 -1.79178 -6.39242 28.5791 -29.7923 7.95139e-016 -1.57785e-015 -3.97569e-016 21.5225 -6.20586 66.0734 3.98129 -0.132665 -102.06 5.93414 -9.01751 -9.18938 7.95139e-016 -1.57785e-015 -3.97569e-016 -18.3778 -0.691111 -21.7874 13.1833 -9.32275 28.0441 -2.73916 2.54759 9.86437 
-226.528 89.2286 90.2982 1.10039 0.529343 90.042 -3.20331 -0.721627 0.282993 1.7224 11.4154 12.0185 6.42008 2.82615 0.010406 -2.10715e-015 -5 3.1927e-015 2.09756 2.24158 -0.954147 -1.05341 10.6133 -13.1754 -3.05793 3.13622 -0.13728 -9.93923e-016 -5 -0 -4.41871 -4.2181 -1.72579 -6.07749 28.7375 -29.7005 7.95139e-016 1.10574e-015 3.97569e-016 20.5872 -6.38781 65.8747 3.80945 -0.0773488 -102.475 6.17702 -8.82606 -9.17033 7.95139e-016 1.10574e-015 3.97569e-016 -17.8901 -0.931986 -23.5318 13.0925 -8.65529 34.3901 -0.476159 2.0474 9.91771 
-226.586 89.2272 90.2975 0.998347 0.537189 89.7016 -3.23934 -0.797544 0.283656 1.70168 11.356 12.3472 6.4283 2.84811 0.0100487 -1.31201e-015 -5 3.1927e-015 2.06803 1.93947 -0.895221 -1.10198 10.8569 -12.9012 -3.03832 3.09724 -0.13728 -3.08116e-015 -5 -0 -4.40672 -4.23146 -1.62965 -5.82071 28.8187 -29.4287 -1.59028e-015 -2.68359e-015 -1.98785e-016 19.6598 -6.52554 65.4441 3.33413 -0.0681334 -102.688 6.41635 -8.09759 -9.18034 -1.59028e-015 -2.68359e-015 -1.98785e-016 -17.5078 -1.29534 -25.465 12.9626 -7.77727 40.4728 1.39403 0.920437 9.9849 
-226.626 89.224 90.2958 0.931829 0.54041 89.4165 -3.27112 -0.87811 0.268648 1.69405 11.3812 12.5802 6.39992 2.83242 0.00967492 1.45115e-015 -5 -1.59635e-015 2.03526 1.68626 -0.86964 -1.12692 11.1168 -12.6534 -3.00872 3.04297 -0.137277 2.58438e-016 -5 -1.59635e-015 -4.36348 -4.24635 -1.53366 -5.43667 28.979 -29.1343 7.95139e-016 -1.49089e-016 -0 18.7648 -6.64447 64.9123 2.8102 -0.138943 -102.891 6.10875 -7.21677 -9.2608 7.95139e-016 -1.49089e-016 -0 -17.1786 -1.51255 -27.2612 12.7756 -6.99008 45.4986 2.80013 -0.654251 10.078 
-226.624 89.2222 90.3183 0.945699 0.50823 89.3349 -3.21009 -0.926251 0.315845 1.67777 11.5225 12.5768 6.37826 2.76266 0.00928522 -2.24628e-015 -5 1.59635e-015 2.07038 1.66793 -0.850982 -1.11543 11.1741 -12.5693 -3.01578 3.04358 -0.137282 7.554e-016 -5 -1.59635e-015 -4.35551 -4.27497 -1.48174 -4.74096 29.3743 -28.9316 7.95139e-016 -2.48481e-017 7.95139e-016 18.0699 -6.77762 64.5377 2.52497 -0.0661082 -103.099 5.91242 -6.71498 -9.30979 7.95139e-016 -2.48481e-017 7.95139e-016 -16.8134 -1.54733 -28.8369 12.5819 -6.24521 49.2495 3.60351 -2.34456 10.1734 
-226.604 89.2221 90.3576 1.01628 0.451893 89.369 -3.11051 -0.929484 0.396926 1.66523 11.6948 12.4877 6.40674 2.66976 0.00888057 3.97569e-015 -5 -0 2.14264 1.8634 -0.837974 -1.08246 10.9545 -12.6106 -3.08851 3.12302 -0.137297 -4.43292e-015 -5 1.59635e-015 -4.39653 -4.32197 -1.48944 -3.72119 30.0274 -28.814 7.95139e-016 -9.44227e-016 3.97569e-016 17.5528 -6.86558 64.3982 2.47419 -0.0291274 -103.241 6.27869 -6.70259 -9.27252 7.95139e-016 -9.44227e-016 3.97569e-016 -16.3958 -1.55826 -29.6138 12.5231 -5.60281 51.1612 3.77947 -3.53528 10.2259 
-226.585 89.2221 90.3845 1.11671 0.413655 89.4231 -3.06136 -0.865043 0.434041 1.68914 11.7939 12.443 6.44336 2.60178 0.00846201 5.16876e-016 -5 -3.1927e-015 2.19154 2.13895 -0.850925 -1.0468 10.6299 -12.6767 -3.16886 3.2252 -0.137315 -5.56615e-016 -5 1.59635e-015 -4.38618 -4.43272 -1.53173 -2.42612 30.9443 -28.7692 1.59028e-015 6.21202e-016 -1.19271e-015 17.1399 -6.89049 64.275 2.43544 -0.0522386 -103.558 6.59037 -6.96711 -9.22442 1.59028e-015 6.21202e-016 -1.19271e-015 -16.0394 -1.55161 -29.487 12.6033 -5.33818 51.4805 3.90127 -3.83943 10.2455 
